<svg width="155" height="38" viewBox="0 0 155 38" fill="none" xmlns="http://www.w3.org/2000/svg">
<path d="M53.3 3.19995C52.9 2.29995 52.1 1.69995 51.1 1.69995C50.1 1.69995 49.4 2.19995 49 3.19995L39.5 27.2C39.3 27.6 39.3 28.2 39.3 28.2C39.3 29.5 40.3 30.5 41.6 30.5C42.6 30.5 43.4 29.9 43.8 29L46.4 22.5H56L58.6 29.0999C59 29.9999 59.8 30.5999 60.8 30.5999C62.1 30.5999 63.1 29.5999 63.1 28.2999C63.1 28.0999 63 27.7 62.9 27.4L53.3 3.19995ZM54.4 18.1H47.9L51.1 9.69995L54.4 18.1Z" fill="#F26D61"/>
<path d="M78.7 0.5C77.5 0.5 76.5 1.5 76.5 2.7V11.3C75.4 10.6 73.9 10 72.1 10C68.1 10 63.3 11.8 63.3 20.3C63.3 27 66.5 30.7 72.3 30.7C77.6 30.7 80.9 27.4 80.9 22.1V2.7C80.9 1.5 79.9 0.5 78.7 0.5ZM76.5 22.1C76.5 25.8 74.2 26.6 72.3 26.6C70.3 26.6 67.7 26 67.7 20.4C67.7 14.2 71.1 14.2 72.3 14.2C74.9 14.2 76.2 16.3 76.5 16.9V22.1Z" fill="#F26D61"/>
<path d="M99.9 25.9H89.2V18.2H96.8C98 18.2 99 17.2 99 16C99 14.8 98 13.8 96.8 13.8H89.2V6.30002H99.5C100.7 6.30002 101.7 5.30003 101.7 4.10003C101.7 2.90003 100.7 1.90002 99.5 1.90002H86.9C85.6 1.90002 84.6 2.90002 84.6 4.20002V27.8C84.6 29.1 85.6 30.1 86.9 30.1H99.9C101.1 30.1 102.1 29.1 102.1 27.9C102.1 26.9 101.1 25.9 99.9 25.9Z" fill="#6D707C"/>
<path d="M111.8 10.1C107.4 10.1 105.4 12.3 104.5 13.6C104.4 13.8 104.2 14.2 104.2 14.7C104.2 15.8 105.1 16.8 106.3 16.8C107 16.8 107.5 16.5 108 15.9C109.1 14.7 110.1 14.2 111.8 14.2C114.1 14.2 115.5 15.4 115.5 17.5V17.6H110.9C106.1 17.6 103.1 20.1 103.1 24.1C103.1 28.1 106 30.6 110.8 30.6C112.7 30.6 114.4 30.1 115.6 29.1C115.9 29.9 116.7 30.4 117.6 30.4C118.8 30.4 119.8 29.4 119.8 28.2V17.6C119.7 13 116.7 10.1 111.8 10.1ZM111 26.6C107.5 26.6 107.5 24.8 107.5 24.2C107.5 22.2 109.3 21.8 110.8 21.8H115.4V22.5C115.4 25.3 113.2 26.6 111 26.6Z" fill="#6D707C"/>
<path d="M130.2 18.2C127.9 17.4 126.5 16.9 126.5 15.8C126.5 14.9 127.4 14.4 129 14.4C130.8 14.4 131.7 15 132.6 15.8C132.9 16.1 133.4 16.4 134.1 16.4C135.2 16.4 136.2 15.5 136.2 14.3C136.2 13.7 135.9 13.3 135.7 13C134.3 11.1 131.9 10.1 129 10.1C124.7 10.1 122.1 12.3 122.1 15.8C122.1 20.1 126 21.4 128.8 22.3C131 23.1 132.4 23.6 132.4 24.6C132.4 26.1 130.7 26.4 129.2 26.4C127.4 26.4 126 25.9 124.9 24.8C124.3 24.2 123.8 24.1 123.4 24.1C122.3 24.1 121.3 25 121.3 26.2C121.3 26.8 121.5 27.2 121.8 27.5C123 29.1 125.8 30.7 129.2 30.7C133.9 30.7 136.8 28.4 136.8 24.6C136.8 20.5 133.1 19.2 130.2 18.2Z" fill="#6D707C"/>
<path d="M152.7 10.3C151.8 10.3 151 10.8001 150.7 11.7001L146 23L141.4 11.7001C141 10.8001 140.3 10.3 139.3 10.3C138.1 10.3 137.1 11.3 137.1 12.5C137.1 12.9 137.2 13.2 137.3 13.4L143.7 28.5C142.1 32.4 141.4 33.8 138.8 33.8C137.6 33.8 136.7 34.7001 136.7 35.9001C136.7 37.1001 137.6 38 138.8 38C142.7 38 145.1 36.1 147 31.6L154.7 13.2001C154.8 13.1001 154.9 12.8 154.9 12.4C154.9 11.3 154 10.3 152.7 10.3Z" fill="#6D707C"/>
<path d="M6.3 23.2V21.5C4.1 21.5 2.7 21.5 1.9 21.5V14.2H5.3V12.5H0.300003V23.1H1.1C1.1 23.2 2.5 23.2 6.3 23.2Z" fill="#6D707C"/>
<path d="M9.40001 21.5V14.1V12.4C9.10001 12.4 8.80001 12.4 8.60001 12.4H7.70001V20.7V24V27.6L6.40001 25H4.60001L9.40001 34.8V24.5V23.2V21.5V21.5Z" fill="#F26D61"/>
<path d="M28.4 2.70005C23.6 7.50005 16.3 11.4 10.8 12.3V14C16.2 13.2 23.1 9.70005 28.2 5.20005V28C21.6 24 16.2 22 10.8 21.6V23.3C16.2 23.8 21.7 25.9001 28.5 30.2001L29.8 31V1.30005L28.4 2.70005Z" fill="#6D707C"/>
<path d="M155 36C155 37.4 154.2 38 152.8 38C151.5 38 150.7 37.4 150.7 36C150.7 34.6 151.5 34 152.8 34C154.2 34 155 34.6 155 36ZM154.5 36C154.5 34.8 153.9 34.4 152.8 34.4C151.7 34.4 151.1 34.9 151.1 36C151.1 37.1 151.7 37.6 152.8 37.6C153.9 37.6 154.5 37.1 154.5 36ZM152.4 36.2V36.8C152.4 36.9 152.3 37 152.2 37C152.1 37 152 36.9 152 36.8V35.1C152 35 152.1 34.9 152.2 34.9H153C153.5 34.9 153.7 35.2 153.7 35.5C153.7 35.9 153.4 36.1 153.1 36.1L153.6 36.6C153.6 36.7 153.6 36.7 153.6 36.7C153.6 36.8 153.5 36.9 153.4 36.9C153.3 36.9 153.3 36.9 153.2 36.8L152.6 36.1H152.4V36.2ZM153 35.9C153.2 35.9 153.3 35.8 153.3 35.6C153.3 35.4 153.2 35.3 153 35.3H152.5V35.9H153V35.9Z" fill="#6D707C"/>
</svg>
