<svg width="230" height="50" viewBox="0 0 230 50" fill="none" xmlns="http://www.w3.org/2000/svg">
<g clip-path="url(#clip0_172_39)">
<path d="M81.8404 32.542L75.2799 22.823V32.5207H71.909V17.5005H75.8346L82.075 27.2833V17.5005H85.4459V32.542H81.8404Z" fill="black"/>
<path d="M97.9481 32.9997H95.292L89.4035 17.5005H93.3292L96.8494 27.4111L100.05 17.5005H103.858L97.9481 32.9997Z" fill="black"/>
<path d="M114.248 32.8189C109.074 32.8189 105.714 29.6999 105.714 25.0267C105.714 20.3535 108.989 17.2239 114.248 17.2239C119.507 17.2239 122.782 20.2577 122.782 25.0267C122.782 29.7957 119.4 32.8189 114.248 32.8189ZM114.248 20.0448C113.249 19.9678 112.251 20.1929 111.382 20.6907C110.514 21.1885 109.816 21.9359 109.38 22.8355C108.944 23.735 108.789 24.7449 108.937 25.7334C109.084 26.7219 109.527 27.6431 110.207 28.3768C110.887 29.1105 111.773 29.6226 112.749 29.8463C113.725 30.0701 114.746 29.9951 115.678 29.6311C116.611 29.2671 117.412 28.6311 117.977 27.8059C118.542 26.9808 118.845 26.0048 118.846 25.0054C118.854 23.7526 118.383 22.5439 117.528 21.626C116.674 20.7081 115.501 20.1502 114.248 20.0661V20.0448Z" fill="black"/>
<path d="M126.846 32.5207V17.5005H130.494V29.6998H136.681V32.5207H126.846Z" fill="black"/>
<path d="M146.549 32.9997H143.882L137.994 17.5537H141.877L145.397 27.4643L148.597 17.5537H152.395L146.549 32.9997Z" fill="black"/>
<path d="M155.67 32.5207V17.5005H165.697V20.2895H159.296V23.483H164.545V26.272H159.296V29.753H166.006V32.542L155.67 32.5207Z" fill="black"/>
<path d="M179.693 32.5207H175.778L181.506 17.5005H184.706L190.435 32.5207H186.509L183.106 21.5988L179.693 32.5207Z" fill="black"/>
<path d="M219.215 32.5207H215.3L221.029 17.5005H224.282L230 32.5207H226.085L222.682 21.5988L219.215 32.5207Z" fill="black"/>
<path d="M202.425 21.386C201.258 20.6704 199.911 20.3012 198.542 20.3215C197.592 20.3215 196.664 20.6302 196.664 21.386C196.664 22.3653 198.083 22.9721 199.609 23.7705C201.817 24.9308 203.748 25.5482 203.748 28.4224C203.748 31.2966 201.614 32.8188 198.051 32.8188C195.984 32.8294 193.953 32.2813 192.173 31.2327L193.752 28.3585C195.048 29.1797 196.539 29.6426 198.072 29.6998C199.001 29.6998 199.95 29.423 199.95 28.5714C199.95 27.3792 197.038 26.2508 196.27 25.8569C193.603 24.3772 192.717 23.4618 192.717 21.5989C192.717 18.4799 195.32 17.2557 198.659 17.2557C200.51 17.2324 202.339 17.6522 203.993 18.4799L202.425 21.386Z" fill="black"/>
<path d="M208.164 32.5207V17.5005H211.833V32.5207H208.164Z" fill="black"/>
<path d="M61.871 32.5207V17.5005H65.5406V32.5207H61.871Z" fill="black"/>
<path d="M21.9535 50.032C21.6351 50.0303 21.3226 49.9459 21.0468 49.7871L0.906731 38.1521C0.631511 37.996 0.402625 37.77 0.243357 37.497C0.0840894 37.224 0.000123435 36.9138 8.45047e-07 36.5979V13.4022C-0.00210252 13.0859 0.0809268 12.7748 0.240421 12.5014C0.399915 12.228 0.630026 12.0024 0.906731 11.848L21.0468 0.244881C21.3194 0.0826949 21.6308 -0.00292969 21.9482 -0.00292969C22.2656 -0.00292969 22.577 0.0826949 22.8496 0.244881L43.0003 11.848C43.275 12.0038 43.503 12.23 43.6606 12.5033C43.8181 12.7766 43.8996 13.0869 43.8964 13.4022V36.5979C43.8984 36.9129 43.8165 37.2229 43.6591 37.496C43.5016 37.769 43.2743 37.9955 43.0003 38.1521L22.8496 49.7552C22.5806 49.9247 22.2715 50.0202 21.9535 50.032V50.032ZM3.61625 35.5547L21.9535 46.1146L40.2908 35.5547V14.4454L21.9535 3.8855L3.61625 14.4454V35.5547Z" fill="black"/>
<path d="M42.1043 26.7937C41.7866 26.7973 41.4736 26.7164 41.1975 26.5595L31.1275 20.758C30.8459 20.5984 30.6129 20.3657 30.4532 20.0845C30.2936 19.8034 30.2132 19.4843 30.2208 19.1612V7.60064C30.2201 7.28317 30.3036 6.97117 30.4629 6.69633C30.6221 6.4215 30.8514 6.19361 31.1275 6.03581L41.1975 0.244881C41.4701 0.0826949 41.7816 -0.00292969 42.0989 -0.00292969C42.4163 -0.00292969 42.7277 0.0826949 43.0003 0.244881L53.0704 6.03581C53.3464 6.19361 53.5757 6.4215 53.735 6.69633C53.8942 6.97117 53.9777 7.28317 53.9771 7.60064V19.1612C53.977 19.4771 53.893 19.7873 53.7337 20.0603C53.5745 20.3333 53.3456 20.5593 53.0704 20.7154L43.0003 26.6128C42.7225 26.7499 42.4136 26.8122 42.1043 26.7937V26.7937ZM33.8263 18.1606L42.1043 22.9189L50.3608 18.1606V8.64386L42.1043 3.8855L33.8263 8.64386V18.1606Z" fill="black"/>
<path d="M42.1043 26.7937C41.7866 26.7973 41.4736 26.7164 41.1975 26.5595L31.1275 20.758C30.8459 20.5984 30.6129 20.3657 30.4532 20.0845C30.2936 19.8033 30.2132 19.4843 30.2208 19.1612V7.60063C30.2222 7.28473 30.3066 6.97471 30.4654 6.70142C30.6241 6.42812 30.8518 6.20107 31.1258 6.04283C31.3998 5.88459 31.7106 5.80069 32.0271 5.79945C32.3437 5.79822 32.6551 5.8797 32.9303 6.0358L43.0003 11.848C43.275 12.0038 43.503 12.23 43.6606 12.5033C43.8181 12.7766 43.8995 13.0869 43.8964 13.4022V25.0054C43.8978 25.2406 43.8524 25.4738 43.7628 25.6914C43.6733 25.909 43.5413 26.1067 43.3746 26.2731C43.2079 26.4394 43.0098 26.5711 42.7917 26.6605C42.5737 26.7499 42.34 26.7951 42.1043 26.7937V26.7937ZM33.8263 18.1606L40.2908 21.8863V14.4348L33.8263 10.709V18.1606Z" fill="black"/>
</g>
<defs>
<clipPath id="clip0_172_39">
<rect width="230" height="50" fill="white"/>
</clipPath>
</defs>
</svg>
