<svg xmlns="http://www.w3.org/2000/svg" fill="none" viewBox="0 0 100 100">
<path d="M0 33.2C0 5.8598 5.8598 0 33.2 0H66.8C94.1402 0 100 5.8598 100 33.2V66.8C100 94.1402 94.1402 100 66.8 100H33.2C5.8598 100 0 94.1402 0 66.8V33.2Z" fill="url(#paint0_linear_163_46)"/>
<path d="M17.9 70V26.8H25.58V44.8C26.58 43.16 27.92 41.88 29.6 40.96C31.32 40 33.28 39.52 35.48 39.52C39.16 39.52 42 40.68 44 43C46.04 45.32 47.06 48.72 47.06 53.2V70H39.44V53.92C39.44 51.36 38.92 49.4 37.88 48.04C36.88 46.68 35.28 46 33.08 46C30.92 46 29.12 46.76 27.68 48.28C26.28 49.8 25.58 51.92 25.58 54.64V70H17.9ZM57.5839 70V46.66H53.5039V40.24H57.5839V36.76C57.5839 33.16 58.4839 30.6 60.2839 29.08C62.1239 27.56 64.6039 26.8 67.7239 26.8H71.0239V33.34H68.9239C67.6039 33.34 66.6639 33.6 66.1039 34.12C65.5439 34.64 65.2639 35.52 65.2639 36.76V40.24H71.6839V46.66H65.2639V70H57.5839ZM81.05 70.42C79.65 70.42 78.49 69.98 77.57 69.1C76.69 68.22 76.25 67.16 76.25 65.92C76.25 64.64 76.69 63.56 77.57 62.68C78.49 61.8 79.65 61.36 81.05 61.36C82.45 61.36 83.59 61.8 84.47 62.68C85.39 63.56 85.85 64.64 85.85 65.92C85.85 67.16 85.39 68.22 84.47 69.1C83.59 69.98 82.45 70.42 81.05 70.42Z" fill="white"/>
<defs>
<linearGradient id="paint0_linear_163_46" x1="50" y1="0" x2="50" y2="100" gradientUnits="userSpaceOnUse">
<stop stop-color="#B02323"/>
<stop offset="1" stop-color="#1F609B"/>
</linearGradient>
</defs>
</svg>